<?xml version="1.0" standalone="no"?>
<!DOCTYPE svg PUBLIC "-//W3C//DTD SVG 20010904//EN"
 "http://www.w3.org/TR/2001/REC-SVG-20010904/DTD/svg10.dtd">
<svg version="1.0" xmlns="http://www.w3.org/2000/svg"
 width="500.000000pt" height="500.000000pt" viewBox="0 0 500.000000 500.000000"
 preserveAspectRatio="xMidYMid meet">
<metadata>
Created by potrace 1.11, written by Peter Selinger 2001-2013
</metadata>
<g transform="translate(0.000000,500.000000) scale(0.100000,-0.100000)"
fill="#000000" stroke="none">
<path d="M0 2500 l0 -2500 2500 0 2500 0 0 2500 0 2500 -2500 0 -2500 0 0
-2500z m2790 1790 c151 -25 285 -60 405 -107 751 -296 1223 -1029 1164 -1810
-72 -955 -876 -1683 -1859 -1683 -638 0 -1211 302 -1564 823 -349 516 -396
1196 -122 1761 266 547 789 925 1411 1020 143 22 416 20 565 -4z"/>
<path d="M1280 2551 l0 -861 170 0 170 0 0 390 0 390 39 0 c24 0 48 -8 65 -21
l26 -20 0 -370 0 -369 170 0 170 0 0 369 c0 251 -4 379 -12 402 -18 54 -48 90
-90 109 l-39 17 31 13 c105 43 150 200 130 449 -16 195 -56 278 -158 328 l-57
28 -307 3 -308 3 0 -860z m476 518 c16 -18 19 -37 19 -129 0 -95 -3 -112 -21
-137 -18 -23 -29 -28 -73 -31 l-51 -3 0 160 0 161 53 0 c42 0 58 -5 73 -21z"/>
<path d="M2403 3383 c2 -16 44 -403 93 -860 l89 -833 210 0 211 0 39 400 c21
220 40 398 42 397 3 -4 83 -750 83 -779 0 -17 17 -18 208 -18 l207 0 93 853
c51 468 93 855 92 860 0 4 -76 7 -170 7 l-170 0 -1 -32 c-1 -94 -87 -1009 -92
-988 -3 14 -22 223 -42 465 -19 242 -38 466 -42 498 l-6 57 -157 0 -157 0 -6
-37 c-3 -21 -25 -259 -48 -530 -24 -271 -45 -491 -46 -489 -3 3 -93 1006 -93
1037 0 18 -8 19 -171 19 l-171 0 5 -27z"/>
</g>
</svg>
