<?xml version="1.0" encoding="UTF-8"?>
<svg fill="#5870F6" width="100pt" height="100pt" version="1.1" viewBox="0 0 100 100" xmlns="http://www.w3.org/2000/svg">
 <g>
  <path d="m93.23 90.496h-86.461c-3.4453 0-6.25-2.8047-6.25-6.25v-68.492c0-3.4453 2.8047-6.25 6.25-6.25h86.457c3.4453 0 6.25 2.8047 6.25 6.25v68.492c0.003907 3.4453-2.8008 6.25-6.2461 6.25zm-86.461-76.824c-1.1445 0-2.082 0.9375-2.082 2.082v68.492c0 1.1445 0.9375 2.082 2.082 2.082h86.457c1.1445 0 2.082-0.9375 2.082-2.082l0.003906-68.492c0-1.1445-0.9375-2.082-2.082-2.082z"/>
  <path d="m2.6055 32.941h94.793v4.168h-94.793z"/>
  <path d="m17.738 23.422c0 6.9727-10.461 6.9727-10.461 0s10.461-6.9727 10.461 0"/>
  <path d="m30.238 23.422c0 6.9727-10.461 6.9727-10.461 0s10.461-6.9727 10.461 0"/>
  <path d="m42.738 23.422c0 6.9727-10.461 6.9727-10.461 0s10.461-6.9727 10.461 0"/>
  <path d="m92.715 23.375c0 2.9141-2.3633 5.2734-5.2734 5.2734h-29.168c-2.9141 0-5.2734-2.3633-5.2734-5.2734 0-2.9141 2.3633-5.2734 5.2734-5.2734h29.168c2.9141 0 5.2734 2.3594 5.2734 5.2734z"/>
  <path d="m39.043 63.902h2.2383v3.0508h-2.2383v4.2852h-3.9453v-4.2852h-8.0508l-0.17578-2.3711 8.1875-13.078h3.9844zm-8.4883 0h4.543v-7.1172l-0.082031-0.027344-0.3125 0.55469z"/>
  <path d="m56.664 63.551c0 2.6133-0.60156 4.5898-1.7969 5.9414-1.1953 1.3516-2.8164 2.0234-4.8594 2.0234-2.0586 0-3.6914-0.67578-4.8906-2.0234-1.1992-1.3516-1.8047-3.332-1.8047-5.9414v-4.3516c0-2.6055 0.60156-4.582 1.7969-5.9414 1.1953-1.3594 2.8203-2.043 4.8711-2.043 2.043 0 3.668 0.67969 4.8711 2.043 1.207 1.3594 1.8086 3.3398 1.8086 5.9414v4.3516zm-3.9492-4.7617c0-1.5625-0.23438-2.707-0.70312-3.4336-0.47266-0.73047-1.1445-1.0898-2.0352-1.0898-0.89453 0-1.5703 0.36328-2.0352 1.082-0.46094 0.72266-0.69141 1.8672-0.69141 3.4375v5.1328c0 1.5859 0.23438 2.7461 0.69922 3.4648 0.46484 0.72266 1.1484 1.082 2.0547 1.082 0.88672 0 1.5586-0.36328 2.0195-1.082 0.46094-0.72266 0.69141-1.8789 0.69141-3.4648l0.007812-5.1289z"/>
  <path d="m70.891 63.902h2.2383v3.0508h-2.2383v4.2852h-3.9453v-4.2852h-8.0508l-0.17578-2.3711 8.1875-13.078h3.9844zm-8.4805 0h4.543v-7.1172l-0.082031-0.027344-0.3125 0.55469z"/>
 </g>
</svg>
