<?xml version="1.0" encoding="UTF-8"?>
<svg width="100pt" height="100pt" version="1.1" viewBox="0 0 100 100" xmlns="http://www.w3.org/2000/svg">
 <g>
  <path d="m50.133 6.3984c-24.066 0-43.566 19.535-43.566 43.602s19.535 43.602 43.602 43.602c24.066 0 43.566-19.535 43.566-43.602s-19.5-43.602-43.602-43.602zm0 76.867c-18.332 0-33.266-14.934-33.266-33.266s14.934-33.266 33.266-33.266c18.332 0 33.266 14.934 33.266 33.266s-14.898 33.266-33.266 33.266z"/>
  <path d="m59.434 55.301l7.6992 2.4336c-1.168 4.3008-3.1328 7.4648-5.8984 9.5664-2.7344 2.1016-6.2344 3.1328-10.434 3.1328-5.2344 0-9.5-1.8008-12.867-5.3672-3.3672-3.5664-5.0352-8.4336-5.0352-14.633 0-6.5352 1.6992-11.633 5.0664-15.266 3.3672-3.6328 7.832-5.4336 13.332-5.4336 4.8008 0 8.7344 1.4336 11.734 4.2656 1.8008 1.668 3.1328 4.1016 4.0352 7.2344l-7.8672 1.8672c-0.46484-2.0352-1.4336-3.6328-2.8984-4.832-1.4648-1.168-3.2656-1.7656-5.3672-1.7656-2.8984 0-5.2656 1.0352-7.1016 3.1328-1.8008 2.1016-2.7344 5.4648-2.7344 10.168 0 4.9648 0.89844 8.5 2.668 10.633 1.8008 2.1016 4.1016 3.168 6.9648 3.168 2.1016 0 3.9336-0.66797 5.4336-2 1.5352-1.3047 2.6367-3.4375 3.2695-6.3047z"/>
 </g>
</svg>
